<?xml version="1.0" encoding="UTF-8"?>
<svg width="437px" height="68px" viewBox="0 0 437 68" version="1.1" xmlns="http://www.w3.org/2000/svg" xmlns:xlink="http://www.w3.org/1999/xlink">
    <!-- Generator: Sketch 53.2 (72643) - https://sketchapp.com -->
    <title>Group</title>
    <desc>Created with Sketch.</desc>
    <g id="Page-1" stroke="none" stroke-width="1" fill="none" fill-rule="evenodd">
        <g id="Genex-Logo-Copy" transform="translate(-36.000000, -206.000000)">
            <g id="Group" transform="translate(33.000000, 190.000000)">
                <polygon id="Fill-2" fill="#FBB03B" points="196.5986 83 183.9036 43.713 217.1416 19.456 250.3796 43.767 237.6846 83"></polygon>
                <path d="M19.9078725,41.0634317 L19.9078725,31.0022168 C19.9078725,29.2214708 19.5517233,27.9749486 18.6613503,26.906501 C18.2161638,26.4613145 17.5038654,26.1942026 16.7025297,26.1942026 C15.010821,26.1942026 14.2094853,27.4407248 13.8533361,28.5982097 C13.5862242,29.3105081 13.4971869,30.1118438 13.4971869,31.0022168 L13.4971869,70.3567034 C13.4971869,72.2264867 13.9423734,73.4730089 14.8327464,74.4524192 C15.2779329,74.8976057 15.901194,75.1647176 16.7025297,75.1647176 C18.3942384,75.1647176 19.1955741,74.09627 19.5517233,72.7607105 C19.8188352,72.1374494 19.9078725,71.3361137 19.9078725,70.3567034 L19.9078725,58.5147425 L16.0792686,58.5147425 L16.0792686,50.4123482 L29.5239009,50.4123482 L29.5239009,83 L23.8255137,83 L22.6680288,79.8836945 C20.8872828,82.109627 18.3052011,83.7122984 15.1888956,83.7122984 C12.0725901,83.7122984 9.93569485,82.9109627 8.33302345,81.4863659 C6.73035205,80.1508064 5.66190445,78.4590977 4.94960605,76.6783517 C4.14827035,74.6304938 3.79212115,72.2264867 3.88115845,69.5553677 L3.88115845,31.0022168 C3.97019575,28.4201351 4.50441955,26.016128 5.48382985,23.9682701 C6.28516555,22.1875241 7.44265045,20.4067781 9.22339645,19.0712186 C11.0041425,17.7356591 13.4971869,16.8452861 16.7025297,16.8452861 C19.9078725,16.8452861 22.3118796,17.7356591 24.0926256,19.0712186 C25.8733716,20.4067781 27.1198938,22.1875241 27.9212295,23.9682701 C28.9006398,26.016128 29.4348636,28.4201351 29.5239009,31.0022168 L29.5239009,41.0634317 L19.9078725,41.0634317 Z M41.5578476,17.5575845 L63.5500607,17.5575845 L63.5500607,27.4407248 L51.173876,27.4407248 L51.173876,44.6249237 L60.077606,44.6249237 L60.077606,55.1313251 L51.173876,55.1313251 L51.173876,73.1168597 L63.5500607,73.1168597 L63.5500607,83 L41.5578476,83 L41.5578476,17.5575845 Z M84.0425509,48.8987141 L83.2412152,45.8714459 L82.7069914,45.8714459 L82.7069914,83 L73.8922987,83 L73.8922987,17.5575845 L82.4398795,17.5575845 L91.788796,51.6588704 L92.5901317,54.6861386 L93.1243555,54.6861386 L93.1243555,17.5575845 L101.939048,17.5575845 L101.939048,83 L93.3914674,83 L84.0425509,48.8987141 Z M114.062032,17.5575845 L136.054245,17.5575845 L136.054245,27.4407248 L123.678061,27.4407248 L123.678061,44.6249237 L132.581791,44.6249237 L132.581791,55.1313251 L123.678061,55.1313251 L123.678061,73.1168597 L136.054245,73.1168597 L136.054245,83 L114.062032,83 L114.062032,17.5575845 Z M152.985243,83 L143.54729,83 L154.142728,48.6316022 L143.725364,17.5575845 L153.163318,17.5575845 L158.416519,34.1185223 L158.683631,34.919858 L159.03978,34.919858 L159.306892,34.1185223 L164.560092,17.5575845 L173.998046,17.5575845 L163.580682,48.6316022 L174.176121,83 L164.738167,83 L159.217854,63.5008313 L159.03978,62.6994956 L158.683631,62.6994956 L158.505556,63.5008313 L152.985243,83 Z M275.39205,54.508064 L267.912916,54.508064 L267.912916,83 L258.296888,83 L258.296888,17.5575845 L267.912916,17.5575845 L267.912916,44.6249237 L275.39205,44.6249237 L275.39205,17.5575845 L285.008078,17.5575845 L285.008078,83 L275.39205,83 L275.39205,54.508064 Z M322.150543,69.5553677 C322.061506,72.2264867 321.527282,74.6304938 320.547872,76.6783517 C319.746536,78.4590977 318.500014,80.1508064 316.719268,81.4863659 C314.938522,82.9109627 312.534515,83.7122984 309.329172,83.7122984 C306.123829,83.7122984 303.630785,82.9109627 301.850039,81.4863659 C300.069293,80.1508064 298.911808,78.4590977 298.110472,76.6783517 C297.131062,74.6304938 296.596838,72.2264867 296.507801,69.5553677 L296.507801,31.0022168 C296.596838,28.4201351 297.131062,26.016128 298.110472,23.9682701 C298.911808,22.1875241 300.069293,20.4067781 301.850039,19.0712186 C303.630785,17.7356591 306.123829,16.8452861 309.329172,16.8452861 C312.534515,16.8452861 314.938522,17.7356591 316.719268,19.0712186 C318.500014,20.4067781 319.746536,22.1875241 320.547872,23.9682701 C321.527282,26.016128 322.061506,28.4201351 322.150543,31.0022168 L322.150543,69.5553677 Z M312.534515,31.0022168 C312.534515,29.2214708 312.178366,27.9749486 311.287993,26.906501 C310.842806,26.4613145 310.130508,26.1942026 309.329172,26.1942026 C307.637463,26.1942026 306.836128,27.4407248 306.479979,28.5982097 C306.212867,29.3105081 306.123829,30.1118438 306.123829,31.0022168 L306.123829,69.5553677 C306.123829,71.425151 306.569016,72.6716732 307.459389,73.6510835 C307.904575,74.09627 308.527836,74.3633819 309.329172,74.3633819 C311.020881,74.3633819 311.822217,73.2949343 312.178366,71.9593748 C312.445478,71.3361137 312.534515,70.534778 312.534515,69.5553677 L312.534515,31.0022168 Z M349.587943,83 L343.444369,41.8647674 L343.08822,39.1046111 L342.553996,39.1046111 L342.553996,83 L333.650266,83 L333.650266,17.5575845 L345.40319,17.5575845 L351.101577,47.4741173 L351.546764,50.946572 L351.724838,50.946572 L352.170025,47.4741173 L357.868412,17.5575845 L369.621335,17.5575845 L369.621335,83 L360.717605,83 L360.717605,39.1046111 L360.183382,39.1046111 L359.827232,41.8647674 L353.683659,83 L349.587943,83 Z M381.744319,17.5575845 L403.736533,17.5575845 L403.736533,27.4407248 L391.360348,27.4407248 L391.360348,44.6249237 L400.264078,44.6249237 L400.264078,55.1313251 L391.360348,55.1313251 L391.360348,73.1168597 L403.736533,73.1168597 L403.736533,83 L381.744319,83 L381.744319,17.5575845 Z M430.016447,35.0979326 C430.016447,32.9610374 429.92741,30.5570303 429.304149,28.687247 C428.680888,26.906501 427.701477,25.6599788 426.187843,25.6599788 C423.694799,25.7490161 422.893463,28.3310978 422.893463,32.1597017 C422.893463,34.3856342 423.872874,36.700604 425.29747,39.1936484 C426.722067,41.6866928 428.59185,44.2687745 430.461634,47.0289308 C432.687566,50.3233109 434.913499,53.7067283 436.605207,57.0011084 C438.296916,60.2954885 439.454401,63.6789059 439.454401,67.2403979 C439.454401,71.6032256 438.742103,75.6989414 436.694245,78.7262096 C434.646387,81.7534778 431.352007,83.7122984 426.098806,83.7122984 C419.955232,83.7122984 416.482778,81.3973286 414.523957,77.8358366 C412.565136,74.2743446 412.11995,69.5553677 412.11995,64.6583162 L421.557904,63.7679432 C421.557904,66.5280995 421.646941,69.2882558 422.359239,71.3361137 C422.982501,73.4730089 424.050948,74.8976057 426.098806,74.8976057 C428.948,74.8976057 430.016447,71.8703375 430.016447,67.6855844 C430.016447,65.5486892 428.948,63.0556448 427.523403,60.4735631 C426.722067,59.2270409 425.920731,57.8914814 425.030358,56.5559219 C423.160575,53.8848029 421.112717,50.8575347 418.975822,47.5631546 C416.838927,44.2687745 415.236255,40.8853571 414.256845,37.4129024 C413.722621,35.7211937 413.455509,33.9404477 413.455509,32.1597017 C413.455509,28.5982097 414.256845,24.7696058 416.304703,21.8313749 C418.352561,18.9821813 421.468866,16.9343234 426.009769,16.8452861 C431.797193,16.7562488 435.180611,19.1602559 437.050394,22.6327106 C438.920177,26.1942026 439.454401,30.5570303 439.454401,34.2075596 L430.016447,35.0979326 Z" id="GENEXHOMES" fill="#333333" fill-rule="nonzero"></path>
            </g>
        </g>
    </g>
</svg>